<svg xmlns="http://www.w3.org/2000/svg" width="512" height="512" viewBox="0 0 512 512">
  <title>logo</title>
  <g>
    <circle cx="304" cy="283.13304" r="40" style="fill: #f8f8f8"/>
    <path d="M384,5.65257H16.63965A16.64013,16.64013,0,0,0,0,22.29222v.0625a16.52147,16.52147,0,0,0,14.168,16.334A95.99511,95.99511,0,0,1,96,133.65257V474.32542a31.99976,31.99976,0,0,0,41.41113,30.585l147.76758-45.46679a64,64,0,0,1,37.64258,0l147.76758,45.46679A31.99976,31.99976,0,0,0,512,474.32542V133.65257A128.00009,128.00009,0,0,0,384,5.65257ZM300.11719,371.04906C252.44141,368.98753,216,327.33421,216,279.61449V91.133a47.99988,47.99988,0,0,1,48,48v59.49414a3.95926,3.95926,0,0,0,5.626,3.57617,87.57117,87.57117,0,0,1,53.126-5.07812c34.43653,7.31347,61.98047,35.84668,67.92188,70.5459A88.12448,88.12448,0,0,1,300.11719,371.04906Z" style="fill: #f8f8f8"/>
  </g>
</svg>